# xmcd
#
# Track frame offsets:
# 150
# 15291
# 30525
# 49834
# 61548
# 70751
# 85746
# 100829
# 103796
# 120055
# 130476
# 148650
# 160985
# 183230
#
# Disc length: 2583 seconds
#
#
# Revision: 0
# Processed by: cddbd v1.4PL0 Copyright (c) Steve Scherf et al.
# Submitted via: FreeRIP 2.00 
#
DISCID=a90a150e
DTITLE=The Isaacs - Eye of the Storm
DYEAR=2002
DGENRE=Bluegrass
TTITLE0=He Ain't Never Done Me Nothin' But Good
TTITLE1=Walking Down the Road
TTITLE2=It Is Well (Elisha's Song)
TTITLE3=Evergreen Shore
TTITLE4=The Sun Will Never Set Again
TTITLE5=Who Will Survive the Storm
TTITLE6=He's Taking Care of Me
TTITLE7=Levi (He's Taking Care of Me)
TTITLE8=There Through It All
TTITLE9=Don't Let Your Light Grow Dim
TTITLE10=He Is Leading Me
TTITLE11=Why Are You Hungry?
TTITLE12=Another Soldier Down
TTITLE13=Star Spangled Banner
EXTD=
EXTT0=
EXTT1=
EXTT2=
EXTT3=
EXTT4=
EXTT5=
EXTT6=
EXTT7=
EXTT8=
EXTT9=
EXTT10=
EXTT11=
EXTT12=
EXTT13=
PLAYORDER=
